<svg width="14" height="14" viewBox="0 0 14 14" fill="none" xmlns="http://www.w3.org/2000/svg" id="settings">
  <path d="M5.3444 8.65625C5.80273 9.11458 6.35482 9.34375 7.00065 9.34375C7.64648 9.34375 8.19857 9.11458 8.6569 8.65625C9.11523 8.19792 9.3444 7.64583 9.3444 7C9.3444 6.35417 9.11523 5.80208 8.6569 5.34375C8.19857 4.88542 7.64648 4.65625 7.00065 4.65625C6.35482 4.65625 5.80273 4.88542 5.3444 5.34375C4.88607 5.80208 4.6569 6.35417 4.6569 7C4.6569 7.64583 4.88607 8.19792 5.3444 8.65625ZM11.9695 7.65625L13.3757 8.75C13.5215 8.85417 13.5424 9 13.4382 9.1875L12.0945 11.5C12.0111 11.6458 11.8757 11.6875 11.6882 11.625L10.0319 10.9688C9.5944 11.2812 9.2194 11.5 8.9069 11.625L8.6569 13.375C8.61523 13.5625 8.51107 13.6562 8.3444 13.6562H5.6569C5.49023 13.6562 5.38607 13.5625 5.3444 13.375L5.0944 11.625C4.69857 11.4583 4.32357 11.2396 3.9694 10.9688L2.31315 11.625C2.12565 11.6875 1.99023 11.6458 1.9069 11.5L0.563151 9.1875C0.458984 9 0.479818 8.85417 0.625651 8.75L2.0319 7.65625C2.01107 7.51042 2.00065 7.29167 2.00065 7C2.00065 6.70833 2.01107 6.48958 2.0319 6.34375L0.625651 5.25C0.479818 5.14583 0.458984 5 0.563151 4.8125L1.9069 2.5C1.99023 2.35417 2.12565 2.3125 2.31315 2.375L3.9694 3.03125C4.4069 2.71875 4.7819 2.5 5.0944 2.375L5.3444 0.625C5.38607 0.4375 5.49023 0.34375 5.6569 0.34375H8.3444C8.51107 0.34375 8.61523 0.4375 8.6569 0.625L8.9069 2.375C9.30273 2.54167 9.67773 2.76042 10.0319 3.03125L11.6882 2.375C11.8757 2.3125 12.0111 2.35417 12.0945 2.5L13.4382 4.8125C13.5424 5 13.5215 5.14583 13.3757 5.25L11.9695 6.34375C11.9903 6.48958 12.0007 6.70833 12.0007 7C12.0007 7.29167 11.9903 7.51042 11.9695 7.65625Z" fill="currentColor"/>
</svg>
